/* XPM */
static char *e261937f6c054628b276724d21fe8416NzttMe7zIXphYrtM[] = {
/* columns rows colors chars-per-pixel */
"50 50 67 1 ",
"  c #58636F",
". c #566272",
"X c #596573",
"o c #5D6877",
"O c #5D6778",
"+ c #5E6979",
"@ c #606977",
"# c #656F7C",
"$ c #64707D",
"% c #677180",
"& c #6A7682",
"* c #7D8A97",
"= c #78879A",
"- c #778A99",
"; c #7B8B9B",
": c #7F919F",
"> c #7F92A1",
", c #828F9D",
"< c #80909F",
"1 c #828FA0",
"2 c #8492A2",
"3 c #A6BBCA",
"4 c #A5BDC9",
"5 c #A6BCCA",
"6 c #A6BCCC",
"7 c #A7BECF",
"8 c #A8BCCB",
"9 c #A8BCCD",
"0 c #ABBFCE",
"q c #ACBFCF",
"w c #A7BDD1",
"e c #A7BED0",
"r c #A8BFD1",
"t c #AABFD0",
"y c #ABBFD0",
"u c #AABFD2",
"i c #A8C1CF",
"p c #AAC0CF",
"a c #ABC0D1",
"s c #A9C0D2",
"d c #AAC0D3",
"f c #AAC1D3",
"g c #ACC1D3",
"h c #ACC1D4",
"j c #ADC2D5",
"k c #ACC3D5",
"l c #C6DAE8",
"z c #C7DBE9",
"x c #C8DBE9",
"c c #CBDBEA",
"v c #C9DDEB",
"b c #CBDDEB",
"n c #CCDFEF",
"m c #CBE1EE",
"M c #CFE3EE",
"N c #CEE1F1",
"B c #D0E3F1",
"V c #D2E3F3",
"C c #D1E5F0",
"Z c #D5E5F3",
"A c #D5E7F4",
"S c #D5E7F5",
"D c #D4E8F6",
"F c #D6E9F6",
"G c #D6E7F8",
"H c #D6E9F8",
"J c #D7EAFA",
/* pixels */
"vvvvvvvvvvvvvvvvvvbx:X-llzlzzlzzlxllvllvlllxlxxx<o",
"88888888303033888888;.;pp550p83p8qq8080078087038; ",
"aaaaaaaaaaataaaagtg7:X;agaaaaatgygttttttgtttaatt;O",
"tttttttttttttttt0tt7;o-ap0ttttt0tttt0tttqttttttt;o",
"tttttttttttttttttttw;o-ktttttttttttttttttttttttt-O",
"ttttttttttttttttttt7;X;atttttttttttttttttttttttt;O",
"tttttttttttttttttttw;X;atttttttttttttttttttttttt;o",
"tttttttttttttttttttw;X;atatttttttttttttttttttttt-X",
"tttt0ttttttttttttttw;X;ktatttttttttttttttttyttty;O",
"tttt0qtttttt0gtttttw;X;yttt0ttttt0tttttttttqtttq-X",
"pggggggggghakgkaaatu2.;kkkyqk0ggqqpgakgqkyyygkkk:o",
",*,**,**,**;****,;*;;*****;,,**,,*,****,,;*,****;X",
"***;;**;*+;*;;**;*;;;,****,;***;;;;&;;;*,**;**;*;;",
"DADDHHDD*O;GDDHADZDDAHAAAAADZAADAC,$HAHDZZAAADHHDD",
"0tqtqyqa;O;taahaqggpyyqkykyyqkk0802#qqyyttt0yyttpp",
"tttt0taa2.;tatttyyyptttttytttttt702#tqttttttttttpp",
"tttttt0t-.;0tttttttttttttttttttt702$k0ttttttttttaa",
"ttttt0at;O;tttttttttttttttttttttw02$kqttttttttttia",
"ttttttit;.;ahwtttttttttttttttttt0t2#kyytttttttttai",
"ttttttit;X;ttttttttttttttttttttt0t2#k0tttttttttttt",
"tttttttt;X=atttttttttttttttttttti02#kytttttttttttt",
"ttttttaw;X;wtttttttttttttttttttt702#kytttttttttttt",
"ttttitwh;X>a00wtt00tttttwt00twtttt2#kqttttttttttia",
"754w644w>+;w0870q778067377307076032O3055t3w3355533",
"OOOOOooOoXo@@@o@o++ooo++oO++@+++++1Xo@OO+++@++++OO",
"2;<><<;2;><;>2>,::::2.:>,:<1,><,,;>;112,<;2;2;1,:.",
"MNCCCCCCNCCNCBCBCCNm;X;NNNCCCBCCNCCNBBBBCCBCCNND*O",
"atpatt00apatp0tt0aw7*O-a0tattttt7appyttttttt0paa;O",
"70700007707000700077:O;htt7000707i7waw070070wi0a>X",
"attttttttti0ttittttw;.-attttttw0tt00attttttttttt;.",
"0ttttttttttttttttttw;O-tttttttptttttttttttttwaia-X",
"ttttttttttttttttt0a7;O;ttttttttttttttttttttt0faa;X",
"ttttttttttttttttttt7;O;ptttttttttttttttttttttttt-X",
"ttttttttttttttttt0tw;O-attttt0tttttttttttttttttt-.",
"ttttttaattttttttpai7;O;attttpaiattttttpitttttttt*O",
"ttttttpattuuuuttippi;.;pttttwaaautttttaatttttutu=O",
">>2>>><<::>>>>>>>>>>-o;2>>>>>>>>>>;:>:>>>>>>>>>>-O",
"O.XX.XXXXXXXO.O..o.. X.OXXXX.XX..X.OX.XXXXXXXXX.XO",
";;;;-;-;-X;-;;*;---;-;;;*;;;-;;;;;;&:*;;;-;;;;;-;;",
"mmNMmCmm-X>NmMmmMCMMMmmNNmNMMMMMnn2ommNNMmNMMmNNmN",
"w7awwwwa*X;hfwiwttwwitwahwttttttty2#kytta7ttwtwa0t",
"paaaaaaa;X;afwaaiaaattttwttttttiyy2#kyttaa0iapwapa",
"a0ttpait;X;ahtittttttttta0ttttttt02#kyttittttpaatt",
"ttttt00t;X;awttttttttttttttttttt0t2#jyttattttaw0tt",
"ttttttit;X;tiittttttttttttttttttw02#kyyttttttttttt",
"ttttpait;X;ahwtttttttttttttttttt802#kttttttttttttt",
"ttttawih;O;wattttttttttttttttttt0t2#kttttttttttttt",
"ttttwrfa;.;0htttttttttttttttttta0t2$httttttttttttp",
"ttattaat;O;haaaaaaaaaaa0aaaaa7aiw02%hp0t0ttattpp0t",
"ahhaaaaa;X;aaaaaaahaaaaahaaaaaha002$hhgaggaggaggah"
};
