/* XPM */
static char *ba78b699c5134fbae57afba1e998b666ZDwupcLynRrFg7fV[] = {
/* columns rows colors chars-per-pixel */
"50 50 34 1 ",
"  c #5DB85D",
". c #5EB95E",
"X c #66BC66",
"o c #67BC66",
"O c #69BD69",
"+ c #6CBD6A",
"@ c #6FBF6F",
"# c #7AC479",
"$ c #85C984",
"% c #8ACA88",
"& c #91CE90",
"* c #9AD299",
"= c #A4D6A2",
"- c #ACD9AA",
"; c #B2DCB0",
": c #B3DEB3",
"> c #C2E4C3",
", c #C5E5C4",
"< c #C7E7C7",
"1 c #C8E7C8",
"2 c #D9EED8",
"3 c #DBEFDA",
"4 c #DDEFDC",
"5 c #E2F2E2",
"6 c #E7F4E6",
"7 c #E8F5E7",
"8 c #EAF5E9",
"9 c #EEF7EE",
"0 c #F0F8F0",
"q c #F2FAF2",
"w c #F5FAF5",
"e c #F9FCF9",
"r c #FDFDFC",
"t c white",
/* pixels */
"                                                  ",
"                                                  ",
"                                                  ",
"                                                  ",
"                                                  ",
"                                                  ",
"                                                  ",
"                t                                 ",
"               tt#                                ",
"              tt5                                 ",
"           t ett                                  ",
"           tttt     7 t wXet tt tt tqtt           ",
"           *tt      t t wt  t  ttt t >0           ",
"            9      # et 4t +t  q $  t<            ",
"                    w  9  6: 5> 3; 9 @5           ",
"                                                  ",
"                                                  ",
"                                                  ",
"                                                  ",
"                                                  ",
"                                                  ",
"                                                  ",
"                                                  ",
"                                                  ",
"                                                  ",
"           ###     32       #####                 ",
"           ttt   8tttt:     ttttt                 ",
"            tt   t3  7t     t                     ",
"            tt  tt    t3   tt                     ",
"            tt  tt    tt   t3                     ",
"            tt        t8   tttt                   ",
"            tt        t    t=ttt                  ",
"            tt       tt   O    tq                 ",
"            tt      tt         tt                 ",
"            tt     %t+         -t                 ",
"            tt     tt          6t                 ",
"            tt    tt           tt                 ",
"            tt   tt      tt   <t   @ tt t         ",
"            tt  ottttttt  ttttt9   & ttot         ",
"            <<  111111<<   8tt       1 : :        ",
"                                                  ",
"                                                  ",
"                                                  ",
"                                                  ",
"                                                  ",
"                                                  ",
"                                                  ",
"                                                  ",
"                                                  ",
"                                                  "
};
