/* XPM */
static char *_44714bd08a4490ad4f0a047122df288LxKmu0YQmE1L2gFP[] = {
/* columns rows colors chars-per-pixel */
"50 50 46 1 ",
"  c #D8636F",
". c #D86470",
"X c #D96671",
"o c #D96773",
"O c #DA6873",
"+ c #D96974",
"@ c #DB707B",
"# c #DC727D",
"$ c #DD747E",
"% c #DD7680",
"& c #DD7781",
"* c #DE7983",
"= c #DE7A84",
"- c #DF7D87",
"; c #E0828C",
": c #E1838D",
"> c #E28891",
", c #E38C94",
"< c #E699A0",
"1 c #E8A1A9",
"2 c #EAA7AE",
"3 c #EDB6BB",
"4 c #EEB8BD",
"5 c #EFBDC1",
"6 c #F0BEC3",
"7 c #F2C7CB",
"8 c #F5D1D5",
"9 c #F5D3D6",
"0 c #F6D5D9",
"q c #F7DCDF",
"w c #F8DEE1",
"e c #F8E0E2",
"r c #F9E3E4",
"t c #F9E5E7",
"y c #F9E7E8",
"u c #FAE8E9",
"i c #FBEEEF",
"p c #FCEFF1",
"a c #FCF0F1",
"s c #FCF3F4",
"d c #FDF5F6",
"f c #FDF8F8",
"g c #FDF8F9",
"h c #FEFBFB",
"j c #FEFBFC",
"k c #FFFEFE",
/* pixels */
"                                                  ",
"                                                  ",
"                                                  ",
"                                                  ",
"                                                  ",
"                ,     X                           ",
"                >X    w                           ",
"                 0   h    h      o                ",
"                  j.k    5     q -                ",
"                   k    X7     2 -                ",
"                  5 h    kk k9 k -                ",
"                 %@  5   7 k.1.k -                ",
"                 4   XO  7.k X.k -                ",
"                p     2X 7 0yk.k -                ",
"                                                  ",
"                                                  ",
"                                                  ",
"                                                  ",
"                                                  ",
"                                                  ",
"                                                  ",
"                                                  ",
"                                                  ",
"                                                  ",
"                   .                              ",
"                   k     @:                       ",
"                   k    kkkks                     ",
"                  kk   kk:Xik3                    ",
"                 ykk  #k    kkX                   ",
"                 kkk  kk    *k                    ",
"                kkkk        $k                    ",
"               *kXkk        kk                    ",
"               kk kk.       ks                    ",
"              pk  kk      .kk                     ",
"         .   .k4  kk      ek#                     ",
"      kkkkr  kk. .kk     .kk      *               ",
"      kkkkr <kkkkkkkk    kk.      k k =k  k<      ",
"        .   kkkkkkkkk   kk       %  y k kg g      ",
"              .   kk  .7k= . .   k  y d kk 9      ",
"                 .kk  .kkkkkkk      y k hy k      ",
"                  kk. kkkkkkkk  k   y  k  ko      ",
"                  .     . . .  ..                 ",
"                                                  ",
"                                                  ",
"                                                  ",
"                                                  ",
"                                                  ",
"                                                  ",
"                                                  ",
"                                                  "
};
