/* XPM */
static char *_f1b6678565e4f57df8fda182c0c6334AKUz0MFF7dhJOrYs[] = {
/* columns rows colors chars-per-pixel */
"50 50 14 1 ",
"  c black",
". c #040404",
"X c #101010",
"o c #323232",
"O c gray26",
"+ c #6A6A6A",
"@ c #989898",
"# c #CDCDCD",
"$ c gray86",
"% c #EAEAEA",
"& c gray93",
"* c #F1F1F1",
"= c #F9F9F9",
"- c white",
/* pixels */
"                                                  ",
"                                                  ",
"                                                  ",
"                                                  ",
"                                                  ",
"                                                  ",
"                                                  ",
"                                                  ",
"                                                  ",
"                                                  ",
"                                                  ",
"                                                  ",
"                                                  ",
"                                                  ",
"                                                  ",
"                                                  ",
"                                                  ",
"                                                  ",
"                                                  ",
"                                                  ",
"        .                       .  .     .        ",
"         -**$     %&&&-    &&&&-   X-&&&-         ",
"         - +$         -        -   X*   -         ",
"           +$         -        -   X%   -         ",
"           +$     @###-    ####-        -         ",
"           +$     oOOO-    OOOO-        -         ",
"           +$         -        -        -         ",
"           +$         -        -        -         ",
"          %*=&    &%&&-    &&&%-        -         ",
"                                .                 ",
"                                                  ",
"                                                  ",
"                                                  ",
"                                                  ",
"                                                  ",
"                                                  ",
"                                                  ",
"                                                  ",
"                                                  ",
"                                                  ",
"                                                  ",
"                                                  ",
"                                                  ",
"                                                  ",
"                                                  ",
"                                                  ",
"                                                  ",
"                                                  ",
"                                                  ",
"                                                  "
};
