/* XPM */
static char *_6310c986b024645d3be2c204a53299dCavaukBBEEvWHrhF[] = {
/* columns rows colors chars-per-pixel */
"50 50 190 2 ",
"   c #1B051D",
".  c #1A0B1C",
"X  c #150917",
"o  c #111312",
"O  c #1B1D1D",
"+  c #1B161B",
"@  c #1D201F",
"#  c #1F0521",
"$  c #1F0B23",
"%  c #1F1B21",
"&  c #220525",
"*  c #210B24",
"=  c #260529",
"-  c #2A052D",
";  c #260A29",
":  c #2A0A2C",
">  c #221425",
",  c #211E24",
"<  c #261B2A",
"1  c #2A1A2D",
"2  c #26142A",
"3  c #2E0631",
"4  c #2E0C31",
"5  c #320636",
"6  c #320B36",
"7  c #360A39",
"8  c #3A0E3E",
"9  c #2C1B31",
"0  c #2E1534",
"q  c #331336",
"w  c #3A183B",
"e  c #33162F",
"r  c #222625",
"t  c #242927",
"y  c #262B2A",
"u  c #2A2D2C",
"i  c #28242A",
"p  c #312628",
"a  c #2B312F",
"s  c #2C2131",
"d  c #2C2C36",
"f  c #342839",
"g  c #2E3331",
"h  c #313534",
"j  c #323936",
"k  c #353C3A",
"l  c #393E3D",
"z  c #393639",
"x  c #423538",
"c  c #39413E",
"v  c #48473D",
"b  c #51443D",
"n  c #6C503F",
"m  c #3E1442",
"M  c #392A42",
"N  c #3C3C4A",
"B  c #393642",
"V  c #411545",
"C  c #421D46",
"Z  c #461D49",
"A  c #491E4D",
"S  c #4C1E50",
"D  c #412247",
"F  c #432D4B",
"G  c #462F49",
"H  c #42374B",
"J  c #443949",
"K  c #4D2051",
"L  c #493C54",
"P  c #3C4442",
"I  c #3F4845",
"U  c #3D4449",
"Y  c #414946",
"T  c #444D4A",
"R  c #414142",
"E  c #47514D",
"W  c #48524E",
"Q  c #5A554A",
"!  c #484555",
"~  c #514B5D",
"^  c #4C5553",
"/  c #4F5955",
"(  c #545E5A",
")  c #515553",
"_  c #554C46",
"`  c #675E4B",
"'  c #605E5C",
"]  c #746454",
"[  c #7A7058",
"{  c #646353",
"}  c #544C62",
"|  c #5D4864",
" . c #545564",
".. c #565D6A",
"X. c #575C64",
"o. c #5A636C",
"O. c #596469",
"+. c #576371",
"@. c #5A6573",
"#. c #5E6877",
"$. c #5E6979",
"%. c #5D6778",
"&. c #676767",
"*. c #7D6868",
"=. c #616B75",
"-. c #656D7B",
";. c #616475",
":. c #64707D",
">. c #6A757C",
",. c #7A7778",
"<. c #807158",
"1. c #847069",
"2. c #9B8651",
"3. c #958B72",
"4. c #A69675",
"5. c #B7A47D",
"6. c #CFAE63",
"7. c #E2C37D",
"8. c #6B7784",
"9. c #727D89",
"0. c #727B89",
"q. c #776E86",
"w. c #847985",
"e. c #877B88",
"r. c #77828E",
"t. c #7D8A96",
"y. c #7B8B9B",
"u. c #778595",
"i. c #7F919F",
"p. c #7F92A1",
"a. c #848384",
"s. c #8C838D",
"d. c #8E8D8A",
"f. c #8F908F",
"g. c #818E9D",
"h. c #938E93",
"j. c #80909F",
"k. c #8A969F",
"l. c #9D979E",
"z. c #9E999E",
"x. c #A79B9B",
"c. c #BDA982",
"v. c #B9B19E",
"b. c #AFA692",
"n. c #818FA0",
"m. c #8392A2",
"M. c #8A9BA8",
"N. c #8FA0AE",
"B. c #93A4B3",
"V. c #9AA9B8",
"C. c #B8B7B8",
"Z. c #AEADAB",
"A. c #D1BE8E",
"S. c #CBB78A",
"D. c #DAC694",
"F. c #E4CF9B",
"G. c #D1C7B6",
"H. c #F3DDA5",
"J. c #FFE7AD",
"K. c #9EB1C1",
"L. c #A1B5C5",
"P. c #A6BBCA",
"I. c #AABECE",
"U. c #A5B8C6",
"Y. c #AABFD0",
"T. c #AAC0CF",
"R. c #ABC1D2",
"E. c #B9CBD8",
"W. c #B2C1CD",
"Q. c #C5C4C5",
"!. c #CECECE",
"~. c #D4D4D4",
"^. c #DBDBDB",
"/. c #C7DBE9",
"(. c #C9DDEB",
"). c #C9DBE9",
"_. c #CEDFF2",
"`. c #CFE3EE",
"'. c #CEE1F1",
"]. c #D1E5F1",
"[. c #D5E8F5",
"{. c #D5E9F6",
"}. c #D6E8F8",
"|. c #E4E4E4",
" X c #EDEDED",
".X c #E9E9E9",
"XX c #F0EEEE",
"oX c #F4F4F4",
"OX c #F9F9F9",
"+X c #FEFEFE",
/* pixels */
"(.(.).).(.(.(.(.(.(.(.(.(.(.).).(.I.k.>.N d z ! J ~  .o.g.E.).)././././././.)./././././.(./././.g.@.",
"P.P.I.I.P.P.I.P.P.P.P.I.P.P.g.! 2   & = & = & & * e q m w q L 0.L.I.I.I.I.P.I.I.I.I.P.I.I.P.I.I.y.o.",
"R.R.R.R.R.R.Y.R.R.Y.R.R.R.I.M 5 5 5 5 5 5 5 5 5 5 5 6 * - 7 V Z L U.Y.Y.I.Y.Y.Y.Y.Y.I.Y.R.R.I.R.y.@.",
"Y.Y.I.Y.I.Y.Y.I.Y.Y.Y.Y.Y.I.N - 5 5 5 5 5 5 5 5 5 5 5 7 : - 5 8 Z H P.I.I.Y.Y.Y.Y.Y.Y.Y.Y.Y.Y.Y.y.#.",
"Y.Y.Y.Y.Y.Y.Y.Y.Y.Y.Y.I.Y.Y.8.$ - - - 3 5 5 5 5 5 5 5 5 w & 5 5 m Z 0.Y.Y.Y.Y.Y.Y.Y.Y.Y.Y.I.Y.Y.y.%.",
"R.Y.Y.Y.Y.Y.Y.Y.Y.Y.Y.Y.Y.Y.K.M = = = - 5 5 5 5 5 5 5 5 5 w = 5 5 A H P.Y.Y.Y.Y.Y.Y.R.I.Y.Y.Y.Y.y.%.",
"I.Y.Y.Y.Y.R.Y.Y.Y.Y.Y.Y.Y.Y.Y. .= = = = 5 5 5 5 5 5 5 5 5 V = 5 5 8 Z r.Y.I.Y.Y.Y.Y.Y.Y.Y.Y.Y.Y.y.@.",
"Y.Y.Y.I.Y.Y.I.Y.Y.Y.Y.Y.Y.Y.Y.L = = = - 5 5 5 5 5 5 5 5 5 m ; 5 5 5 C ;.Y.Y.I.Y.Y.Y.Y.Y.R.I.Y.Y.y.@.",
"I.Y.Y.Y.Y.Y.Y.Y.Y.Y.Y.Y.Y.Y.P.f = = - 5 5 5 5 5 5 5 5 5 5 m - 5 5 5 V ~ I.T.Y.Y.Y.Y.Y.Y.Y.Y.Y.Y.y.@.",
"R.Y.Y.Y.Y.Y.Y.I.Y.Y.Y.Y.Y.Y.t.2     & = & = = G w.s.s.s.s.e.w.w.w.w.| J I.I.Y.I.Y.Y.Y.I.Y.Y.R.Y.y.@.",
"R.R.R.R.Y.R.R.R.Y.I.R.R.Y.R.~ A A A A Z Z Z C h.C.C. X+X+X XoX X+X|.f.f B.Y.R.I.R.R.I.R.R.R.R.R.y.+.",
"g.t.g.t.g.t.g.t.g.t.g.g.y.t.H S K S K K K K A l.^.|.XXoXOXoX X XOX+XC.G 8.t.g.g.g.g.t.g.t.g.t.g.i.$.",
"t.t.g.t.t.t.t.t.t.$.y.t.y.y.H S K S K K K K A l.|..XOXXX!.Q.Q.!.OXoXQ.J 8.t.t.g.t.t.t.t.t.t.t.t.y.y.",
"[.[.}.}.{.{.[.}.t.%.y.}.[.}.} m V V V V V V m l.~.|.+X+XoX~.^.+X+X XC.M W.[.[.}.[.[.[.}.}.}.}.{.{.{.",
"I.Y.Y.Y.Y.Y.I.R.y.@.p.Y.Y.P.f # &     # & #   a.C.!.OXoX.X.X XOXOX!.a.< V.T.Y.Y.Y.Y.Y.Y.Y.Y.Y.I.T.R.",
"Y.Y.Y.Y.Y.Y.R.R.y.%.y.Y.P.8.: 3 3 = = 3 5 * X k &.,.b.v.v.v.v.v.f.1.L 1 Y.Y.Y.Y.Y.Y.Y.Y.Y.Y.Y.R.R.T.",
"Y.Y.Y.Y.Y.Y.Y.Y.y.@.y.I.m.$ 5 5 5 3 5 5 3 + O p h h b F.J.J.J.c.h h . 9 R.Y.Y.Y.Y.Y.Y.Y.I.R.Y.I.T.T.",
"Y.Y.Y.Y.Y.Y.Y.Y.y.@.y.I.%.= 3 5 5 5 5 5 & H.4.&.h r p A.J.J.J.[ y v p s R.Y.Y.Y.Y.Y.Y.Y.Y.Y.Y.Y.T.T.",
"Y.Y.Y.Y.Y.Y.Y.T.y.+.p.I.%.= 3 5 5 5 5 5 & F.b.XX1.` _ D.5.<.4.3.,.x.x d R.R.R.Y.R.Y.Y.Y.Y.Y.Y.Y.T.T.",
"Y.Y.Y.Y.Y.Y.T.Y.y.@.y.Y.t.# = 3 5 5 5 5 3 <.3.Z.1.v.S.x - 5 - ` G.*.x N R.R.Y.Y.Y.Y.Y.Y.Y.Y.Y.Y.Y.Y.",
"Y.Y.Y.Y.Y.Y.Y.Y.y.@.y.Y.U. .= - 3 3 3 5 5 4 p W ' b e 5 5 5 5 4 _ &.< O.R.Y.Y.Y.Y.Y.Y.Y.Y.Y.Y.I.Y.Y.",
"Y.Y.Y.Y.Y.Y.T.Y.y.+.y.Y.Y.K...f 2 & = - - 3 3 # & - 5 5 5 5 5 5 - X ! :.R.Y.Y.Y.Y.Y.Y.Y.Y.Y.R.I.Y.Y.",
"R.R.Y.Y.Y.Y.Y.Y.y.%.p.Y.Y.Y.Y.Y.Y.N...< X # & = = = = = & - - & $ @.y.8.R.Y.Y.Y.Y.R.Y.Y.Y.Y.Y.R.R.T.",
"P.P.T.K.P.P.P.P.p.%.y.Y.P.P.I.I.I.I.I.U.U y r h g .   + r i ;.9.V.Y.m.$.U.I.I.I.P.P.I.P.P.P.P.P.P.P.",
"$.$.#.#.#.#.#.$.#.o.%.#.=.$.$.#.$.%...! . E h W / 2 - u P r N  .;.%.m.@.$.$.%.;.#.#.#.#.%.%.%.%.8.+.",
"p.p.i.p.i.i.i.n.i.j.p.i.p.g.m.y.n.r.M 7 5 f a.&.a . & , k &.J q -.y.y.n.n.n.n.y.j.j.i.i.p.p.p.p.p.+.",
"'.'.].'.].].].].'.].].'.].].].].].V.8 5 5 D C.f.a g g g a.^.f.3 q.].].].].].].].].].'.].'.'.'.}.u.%.",
"T.T.T.T.Y.Y.Y.I.Y.I.R.I.Y.Y.Y.Y.P.L 7 5 5 : a r r g h u r ) o 3 C B.Y.Y.Y.Y.Y.Y.I.R.Y.I.R.T.Y.R.y.@.",
"Y.I.T.I.I.I.I.I.I.T.I.T.I.I.I.P. .6 : - ; i Y c E a c y Y Y T > - L Y.Y.Y.Y.T.I.I.I.T.I.Y.Y.Y.Y.y.+.",
"T.T.I.Y.Y.Y.Y.T.Y.I.Y.Y.Y.I.Y.0.V S Z   h a I a c y c y Y y c > q G I.Y.T.Y.Y.Y.Y.Y.Y.T.Y.Y.Y.Y.y.%.",
"Y.Y.Y.Y.Y.Y.Y.Y.Y.R.Y.Y.Y.Y.T.} w ] ] p T a T T E a c r Y T Y 1 m 7 m.Y.Y.Y.Y.Y.Y.Y.Y.Y.Y.Y.Y.Y.y.@.",
"Y.Y.T.Y.Y.Y.Y.Y.Y.Y.Y.Y.Y.Y.I.r.7.H.D.` T a T W E a c r T W E ] 5.` y.Y.Y.Y.Y.Y.Y.Y.T.Y.Y.Y.Y.Y.y.@.",
"Y.Y.Y.Y.Y.Y.Y.Y.Y.Y.Y.Y.R.Y.Y.K.2.{ W u Y a a a a g k r a h a [ D.6.U.I.Y.Y.Y.Y.Y.T.T.Y.Y.Y.Y.Y.y.@.",
"Y.Y.Y.Y.Y.Y.Y.Y.Y.Y.Y.Y.Y.Y.Y.B.E E j @ O j k P Y Y Y Y Y E y W Y v P.Y.Y.Y.Y.Y.Y.Y.Y.Y.Y.Y.Y.Y.y.%.",
"Y.Y.T.Y.Y.T.T.T.T.Y.Y.Y.Y.Y.Y.K.I a k y a X & * * * > * * . o a l W N.Y.T.Y.T.R.Y.Y.Y.Y.Y.Y.Y.Y.y.@.",
"Y.Y.Y.Y.Y.T.R.T.Y.Y.Y.Y.Y.Y.Y.Y.P k c c @ O * - - 3 3 5 5 G Y c g g K.Y.R.R.T.R.Y.Y.Y.Y.Y.Y.Y.T.u.@.",
"p.p.p.p.p.p.p.p.i.p.p.p.p.p.p.u.j P c c g r % =   & & 6 e.!.w.h c P O.p.p.y.p.p.p.p.p.p.p.p.p.p.t.%.",
"+.+.+.+.+.@.+.+.+.+.+.+.@.+.+...g k c c y a u   d d < s.Z.Z.z.s j k U +.+.@.+.+.@.@.+.+.+.+.@.@.@.@.",
"y.y.y.y.y.y.y.y.y.@.y.y.y.y.y.y.o.j P r o X   N u.y.8.&.Z.,.5 5 , g 0.8.y.y.y.y.y.y.y.y.y.y.y.y.y.y.",
"'.`.'.`.'.].`.'.y.@.p.'.'.`.'.'.`.>.O o # 5 - L.`.`.'.U.} - 5 - 1 ^ m.@.'.'.'.'.'.'.`.`.`.`.'.'.`.`.",
"Y.Y.Y.Y.Y.Y.T.R.y.+.y.T.Y.Y.Y.Y.Y.Y.B.4 5 5 M Y.Y.Y.Y.Y.y.5 5 3 M K.n.-.R.Y.Y.Y.T.T.Y.Y.Y.Y.Y.Y.Y.Y.",
"Y.Y.Y.T.Y.T.T.R.y.@.y.T.Y.Y.Y.Y.T.R.@.3 5 5 m V.Y.T.Y.T.| 5 5 5 0 U.m.-.R.Y.Y.R.T.T.T.T.Y.Y.Y.Y.T.R.",
"Y.Y.Y.Y.Y.Y.T.Y.y.@.p.T.Y.Y.Y.Y.Y.K.P s 9 9 s =.Y.Y.T.M.M d g j k 9.m.8.R.Y.Y.Y.T.Y.Y.Y.Y.Y.Y.Y.Y.I.",
"Y.Y.Y.Y.Y.Y.T.Y.y.@.y.Y.Y.Y.Y.Y.Y.K.T E T W T O.Y.Y.R.m.U W W I W -.m.8.R.Y.Y.Y.T.Y.Y.Y.Y.Y.Y.Y.Y.Y.",
"Y.Y.Y.Y.Y.Y.Y.Y.p.@.y.Y.Y.Y.Y.Y.T.U.E E E E P +.Y.Y.Y.B.P I I c k r.m.8.R.R.R.Y.Y.Y.Y.Y.Y.Y.Y.Y.Y.Y.",
"Y.Y.Y.Y.Y.Y.T.Y.y.+.y.T.R.Y.Y.Y.P.V.=.u g g y N.Y.Y.Y.Y.>.t c c U B.u.%.R.R.R.Y.Y.Y.T.Y.Y.Y.Y.Y.Y.Y.",
"Y.Y.Y.Y.Y.Y.Y.Y.y.+.y.R.R.R.K.r.#.O.I c E I j m.Y.Y.Y.P.O.c I I P ^ O.E p.T.Y.Y.Y.Y.Y.Y.Y.Y.Y.Y.Y.Y.",
"Y.Y.Y.Y.Y.Y.Y.Y.y.@.y.R.Y.P.+.I ( ( ^ W E E T O.U.R.T.y.I W / / E ( ( ( I u.Y.Y.Y.Y.Y.Y.Y.Y.T.Y.I.R.",
"Y.T.Y.Y.Y.Y.T.Y.y.@.y.Y.Y.p.I ( ( / I ^ I I ^ P B.T.T.#.I I I I W ^ / / / ^ I.R.Y.Y.R.I.Y.Y.Y.Y.Y.Y.",
"R.R.R.R.R.R.Y.Y.p.+.p.Y.R.p.I I I I P P P P P a N.R.R...c I c c c P I I I c R.R.R.R.R.R.R.R.R.R.R.R."
};
