/* XPM */
static char *_761397d433b4389eb860283675f56c8i7oe8jP9aqRlSSdn[] = {
/* columns rows colors chars-per-pixel */
"50 50 112 2 ",
"   c #010000",
".  c #0B0604",
"X  c #0D0705",
"o  c #150B07",
"O  c #170C07",
"+  c #170C08",
"@  c #180C08",
"#  c #180D08",
"$  c #190D09",
"%  c #1E100B",
"&  c #1F110B",
"*  c #22130D",
"=  c #27150E",
"-  c #2A160F",
";  c #2B1810",
":  c #2C1811",
">  c #321B13",
",  c #341C13",
"<  c #351C14",
"1  c #381E15",
"2  c #3A2016",
"3  c #3D2217",
"4  c #3F2219",
"5  c #422318",
"6  c #42231A",
"7  c #43231A",
"8  c #432418",
"9  c #43241A",
"0  c #44251B",
"q  c #46261B",
"w  c #47271C",
"e  c #4A271C",
"r  c #4A281C",
"t  c #4A281D",
"y  c #4C291D",
"u  c #4C291E",
"i  c #4E2A1F",
"p  c #4F2A1F",
"a  c #502B1D",
"s  c #502B1E",
"d  c #542D1F",
"f  c #542D20",
"g  c #552D20",
"h  c #552E22",
"j  c #572F22",
"k  c #583120",
"l  c #583021",
"z  c #583023",
"x  c #5F3423",
"c  c #593124",
"v  c #5A3124",
"b  c #5B3224",
"n  c #5F3426",
"m  c #623624",
"M  c #623526",
"N  c #623627",
"B  c #643627",
"V  c #683927",
"C  c #693A27",
"Z  c #6B3A29",
"A  c #6C3A28",
"S  c #6C3B28",
"D  c #6C3B2A",
"F  c #6F3C29",
"G  c #6F3D2B",
"H  c #723F2A",
"J  c #723F2C",
"K  c #74402B",
"L  c #74402D",
"P  c #77412E",
"I  c #79432F",
"U  c #7A432E",
"Y  c #7C432F",
"T  c #7B442F",
"R  c #7E452F",
"E  c #7C4430",
"W  c #7D4430",
"Q  c #7C4530",
"!  c #80462F",
"~  c #824730",
"^  c #834731",
"/  c #824831",
"(  c #834831",
")  c #854931",
"_  c #854932",
"`  c #864A33",
"'  c #884A32",
"]  c #884B33",
"[  c #8B4C33",
"{  c #894B34",
"}  c #8A4C34",
"|  c #8C4D34",
" . c #8D4D34",
".. c #8D4D35",
"X. c #8E4E35",
"o. c #8F4E35",
"O. c #8F4F36",
"+. c #905037",
"@. c #915039",
"#. c #935138",
"$. c #92513A",
"%. c #945238",
"&. c #94523A",
"*. c #95533B",
"=. c #96533A",
"-. c #96543B",
";. c #97553B",
":. c #98553C",
">. c #9C583F",
",. c #9D5940",
"<. c #9E5940",
"1. c #9E5A41",
/* pixels */
"7 7 7 7 7 9 7 4 7 7 7 7 7 7 7 7 4 9 7 7 7 7 7 7 7 7 7 q 7 7 7 7 7 7 7 7 7 7 7 7 7 4 9 9 7 7 7 7 7 7 ",
"7 9 F U T Q Q Q Q Q Q Q Q R R R Q Q Q Q R R T Q Q Q Q U T Q Q Q Y Y Q Q Q R R R T Q Q Q R T P Z 9 7 ",
"7 F r ' %.*.*.*.=.=.*.*.*.*.*.=.*.&.&.;.*.=.*.*.&.*.*.*.*.*.&.*.*.*.*.*.*.*.*.*.*.*.&.;.*.&./ e F 7 ",
"7 U [ q [ X.X.H - [ [ X.X.X.[ O.X.X.X.X.X.X.X.X.X.X.X.X.X.X.X.X.X.X.X.X.X.X.X.X.' = P X.X.| w | F 7 ",
"7 U *.X.q ' O.>   H X.X.X.X.X.X.X.X.X.X.X.X.X.X.X.X.X.X.X.X.X.X.X.X.X.X.X.X.X.X.C   < X.' q X.' C 7 ",
"7 R *.X.' r ) X.U [ X.X.X.X.X.[ X.X.X.[ X.X.X.X.X.X.X.X.X.X.X.X.X.X.X.X.X.X.X.O.X.P X.) r X.X.' C 7 ",
"7 U *.X.R ' r Q Y U U Y U P U P P U P P U U P P P P U P P U P P U U U U J U U J P T ! r ) Q X.) F 9 ",
"7 U *.%   X.! w y y w w i w i i r i r i r a i r r i r i r i a r e i e a e e y i i r q ) )   - ) Z 7 ",
"7 U *.a % X.U i [ +.X.X.*.+.w : > : : - : < : : ; : : > - - < , : : : q +.O.O.O.O.| u ,.| % f ] C 7 ",
"5 U *.X.X.X.P r X.R * K X.;.%.e v v v i v L v v b b v v w v A v z x i @.*.X.' * v +.u ,.| X.X.] F 9 ",
"7 U *.O.X.X.U i X.m   a X.X.;.&.r v v i z H v v v v v v r v A v b e %.;.[ [ ^   < X.r 1.O.X.X.] C 7 ",
"7 R *.X.X.X.P r X.X./ X.X.X.X.;.*.r v r h H v v v v v v r v A v w %.=.[ O.O.O.! X.X.u ,.O.X.| ] F 7 ",
"5 U :.X.X.X.U i [ X.X.X.| O.X.X.*.*.q i h L v v v v v v r v Z w *.*.o.o.X.X.X.X.X.R i :.X.X.X.] Z 9 ",
"5 U &.X.X.X.P r R R X.X.+.| X.O.X.;.*.r h L v v v v v v r v e &.*.X.[ +.X.X.X.X.U W i ,.X.X.X.] C 7 ",
"5 Q &.X.X.X.P i 9 R T X.| O.| X.X.X.;.*.w F v v v v v v r r &.:.X.X.X.X.X.X.X.Y Y 5 a ,.X.X.| ) H 5 ",
"8 R &.X.X.X.P f # 9 R T X.X.X.X.X.X.X.:.*.r z v v v v z w &.:.X.X.X.X.X.X.X.U U 7 # h ,.X.X.X.[ Z 7 ",
"9 T *.X.X.X.P f 7 # 7 U W X.X.X.X.X.X.X.;.=.e v v v v e *.*.[ O.X.X.X.X.X.U Y 7 # q d ,.X.X.X.' F 5 ",
"7 Q *.O.X.X.P f v q # 7 ~ Q X.X.X.X.X.X.[ ;.%.i v j e %.*.O.o.O.X.X.X.X.U ~ q + q v h ,.X.X.X.[ Z 9 ",
"9 U *.O.X.X.U f v v 7 o q ~ Q X.X.X.X.X.O.o.*.%.w e %.*.O.O.[ O.X.X.X.U ~ 7 # i v v d >.X.X.X.' Z 9 ",
"7 U *.O.X.{ P f v v h 7 o q ! R X.X.X.X.O.[ O.=.) %.*.O.o.[ o.O.X.X.U ! q o a B v v h ,.X.X.X.' A 9 ",
"7 U *.X.X.X.P f v v h i B + 9 / T X.X.X.X.X.O.' *.*.X.X.[ o.[ O.X.Q ! q + < B N v v d ,.+.O.O.) A 9 ",
"5 U *.X.X.X.P h v v h i L r + 9 Q R X.X.X.X.[ *.*.X.X.X.O.O.o.O.U Q 7 o r w B N v v h >.+.[ +.) A 9 ",
"9 T *.X.X.{ U d v v h y J v w + q R U X.X.X.*.;.O.[ X.X.X.X.[ R Q 7 + w v 6 B N v v h ,.O.o.[ ) F 5 ",
"7 T *.X.X.X.U d v v h d J z v w # 7 Q ! ' *.;.X.O.O.X.X.X.O.Q Q 6 # w v v w B N v v d >.o.o.O.' C 7 ",
"5 U *.X.X.X.R d v v h i J v v v 9 # 7 ! *.*.X.X.o.[ X.X.X.W W 7 + 6 v v v 6 B N v v h ,.X.X.| ` A 9 ",
"5 U &.X.X.X.P f v v h i J v v v v 7 e &.;.X.X.X.O.O.X.X.W ~ ) q 6 v v v v w N n v v f ,.X.X.X.] A 9 ",
"8 Q *.X.X.X.P f v v h i P v v v v r %.*.X.X.X.X.o.O.o.R ^ ' *.%.r v v v v 6 m B v v h ,.X.X.| ] A 9 ",
"8 R *.X.X.X.P f v v h d J v v v e &.*.X.X.X.X.X.[ O.Y ! [ X.X.*.&.e v v v 6 B B v v f ,.O.X.| ] A 9 ",
"6 Q &.| X.X.P h v v h i L v v e &.;.X.X.X.X.X.X.X.Q ~ | X.X.X.X.&.&.e h z 7 B B v v h ,.X.X.X.] A 9 ",
"7 Q &.O.X.{ U d v v h i L v w *.*.X.X.X.X.X.X.X.E ~ X.X.X.X.X.X.O.&.:.e z 7 B B v v h ,.X.X.X.] A 7 ",
"9 Q :.O.X.| P f v v h i J e *.;.X.X.X.X.X.X.X.Q E ~ U X.X.X.X.X.X.X.:.&.r 6 B m v v d ,.X.X.X.[ F 9 ",
"9 P &.X.X.| E f v v h i q &.:.X.X.X.X.X.X.X.R U 7 7 R R X.X.X.X.X.X.X.:.&.e m m v v h ,.X.X.X.' C 7 ",
"7 U &.X.X.X.U f v v f r &.:.X.X.X.X.X.X.X.R U 7 # # 7 R Q X.X.X.X.X.X.X.*.*.e x v v h :.X.X.X.) A 9 ",
"7 U *.X.X.[ U d v v e &.:.X.X.X.X.X.X.X.E R 7 # 7 9 # 5 Q R X.X.X.X.X.X.X.*.%.i v v h ,.X.X.X.{ A 9 ",
"5 T *.O.X.X.U i z r &.;.X.X.X.X.X.X.X.R ~ 7 o 7 v v q o 7 ! U X.X.X.X.X.X.X.%.%.e v h ,.X.X.X.) A 9 ",
"5 T ;.| O.[ U h r &.*.X.X.X.X.X.X.X.Y ~ q + q v v v v q o q ! T X.X.X.X.X.X.X.*.&.r h ,.X.X.X.' A 9 ",
"5 R ;.X.X.X.U r &.*.X.X.X.X.X.X.X.Y ! q o v v v v v v v 3 o q ! U X.X.X.X.X.X.X.&.&.r ,.X.X.X.' A 9 ",
"9 T ;.X.X.X.U i +.X.X.X.X.X.X.X.R ! 5 o q K v v v v v v r i o q ~ U X.X.X.X.X.X.X.X.i ,.+.X.X.| A 9 ",
"9 U *.X.X.X.P r X.[ x | X.X.X.Q U q o 3 h K v v v v v v r v v # 7 W U X.X.X.{ m ~ X.i ,.X.X.X.) A 9 ",
"7 U &.X.X.X.P r X.v   7 X.X.~ Q 9 # 9 r l H v v v v v v r v A q @ 7 R U X.X.R   : X.r ,.X.X.] | A 9 ",
"7 P ;.| ' X.T r X.X.r ) X.~ U 7 + 9 v r v H v v v v v v r v Z v q # 7 Q U X.X.r Q X.i >.X.' X.) A 9 ",
"7 Q ;.:   ' U r X.X.X.X.X.Q 7 # 6 v v i h J v v v v v v r v F v v q # 6 Q / X.X.X.X.i >.'   < [ A 9 ",
"7 U ;.7 X X.~ w i i r i i i d h v f f l h v h v h h z f z f v h h d l h r i i i i i q ~ | . r [ F 5 ",
"7 U :.X.X.) r ) >.,.,.,.>.,.,.,.,.,.,.,.,.,.>.,.,.,.1.1.,.,.,.,.,.,.1.,.,.,.,.,.,.,.) i / X.X.] A 8 ",
"7 U *.X.) r ) P 2 [ X.X.O.X.X.X.X.X.| +.| O.X.X.+.| X.| X.X.X.X.O.X.X.X.X.X.X.X.X.< U ' r ) X.[ A 8 ",
"7 U X.[ q [ X.,   F X.X.X.X.X.X.X.X.O.| +.| X.X.| +.| +.X.X.X.X.X.X.X.X.X.X.X.X.Z   1 X.{ w ] | A 5 ",
"9 P ) w O.X.| [ K X.X.X.X.X.X.X.X.X.X.X.| X.X.X.X.X.X.X.X.X.X.X.X.X.X.X.X.X.X.X.X.A X.X.X.X.w ) K 9 ",
"9 Z r | / / / / / / / / / / / / / / / ) / / / / / ) / / / / / / / / / / / / / / / / / / / ) ' r C 7 ",
"7 q C H A H A H A H C H A A H A A H A A H A A H A A H A A J F Z F F F F F F F A F F A F F A H Z q 7 ",
"5 5 5 7 7 7 7 7 7 7 7 7 7 7 7 7 7 7 7 7 7 7 7 7 7 7 7 7 7 7 7 7 7 7 7 7 7 7 7 9 7 7 9 9 9 9 7 7 7 7 "
};
